<mxfile host="app.diagrams.net" modified="2023-08-10T08:31:52.723Z" agent="Mozilla/5.0 (X11; Linux x86_64) AppleWebKit/537.36 (KHTML, like Gecko) Chrome/115.0.0.0 Safari/537.36" etag="LCaYjmaXeX05QVMCwKoO" version="21.6.6" type="device" pages="3">
  <diagram name="Page-1" id="zMxwFzM00l0pkX-g4W2U">
    <mxGraphModel dx="879" dy="1444" grid="1" gridSize="10" guides="1" tooltips="1" connect="1" arrows="1" fold="1" page="1" pageScale="1" pageWidth="1100" pageHeight="850" math="0" shadow="0">
      <root>
        <mxCell id="0" />
        <mxCell id="1" parent="0" />
        <mxCell id="ubg_IpyAJ4AEVQFCfxRd-2" value="" style="rounded=0;whiteSpace=wrap;html=1;" vertex="1" parent="1">
          <mxGeometry x="120" y="30" width="190" height="460" as="geometry" />
        </mxCell>
        <mxCell id="ubg_IpyAJ4AEVQFCfxRd-3" value="" style="rounded=0;whiteSpace=wrap;html=1;" vertex="1" parent="1">
          <mxGeometry x="310" y="30" width="550" height="460" as="geometry" />
        </mxCell>
        <mxCell id="ubg_IpyAJ4AEVQFCfxRd-4" value="" style="rounded=0;whiteSpace=wrap;html=1;fillColor=#d5e8d4;strokeColor=#82b366;strokeWidth=7;" vertex="1" parent="1">
          <mxGeometry x="120" y="310" width="190" height="180" as="geometry" />
        </mxCell>
        <mxCell id="ubg_IpyAJ4AEVQFCfxRd-5" value="main" style="text;html=1;strokeColor=#82b366;fillColor=#d5e8d4;align=center;verticalAlign=middle;whiteSpace=wrap;rounded=0;fontFamily=Ubuntu;fontSource=https%3A%2F%2Ffonts.googleapis.com%2Fcss%3Ffamily%3DUbuntu;fontSize=18;" vertex="1" parent="1">
          <mxGeometry x="40" y="370" width="60" height="30" as="geometry" />
        </mxCell>
        <mxCell id="ubg_IpyAJ4AEVQFCfxRd-6" value="main thread" style="shape=hexagon;perimeter=hexagonPerimeter2;whiteSpace=wrap;html=1;fixedSize=1;fontFamily=Ubuntu;fontSource=https%3A%2F%2Ffonts.googleapis.com%2Fcss%3Ffamily%3DUbuntu;fontSize=17;" vertex="1" parent="1">
          <mxGeometry x="155" y="-30" width="120" height="50" as="geometry" />
        </mxCell>
        <mxCell id="ubg_IpyAJ4AEVQFCfxRd-7" value="STACK" style="text;html=1;strokeColor=none;fillColor=none;align=center;verticalAlign=middle;whiteSpace=wrap;rounded=0;fontSize=17;fontStyle=1;fontFamily=Ubuntu;fontSource=https%3A%2F%2Ffonts.googleapis.com%2Fcss%3Ffamily%3DUbuntu;" vertex="1" parent="1">
          <mxGeometry x="190" y="500" width="60" height="30" as="geometry" />
        </mxCell>
        <mxCell id="ubg_IpyAJ4AEVQFCfxRd-8" value="HEAP" style="text;html=1;strokeColor=none;fillColor=none;align=center;verticalAlign=middle;whiteSpace=wrap;rounded=0;fontSize=17;fontStyle=1;fontFamily=Ubuntu;fontSource=https%3A%2F%2Ffonts.googleapis.com%2Fcss%3Ffamily%3DUbuntu;" vertex="1" parent="1">
          <mxGeometry x="550" y="500" width="60" height="30" as="geometry" />
        </mxCell>
        <mxCell id="ubg_IpyAJ4AEVQFCfxRd-10" value="int x = 10" style="rounded=0;whiteSpace=wrap;html=1;fontFamily=Ubuntu;fontSource=https%3A%2F%2Ffonts.googleapis.com%2Fcss%3Ffamily%3DUbuntu;fontSize=17;" vertex="1" parent="1">
          <mxGeometry x="120" y="310" width="190" height="30" as="geometry" />
        </mxCell>
        <mxCell id="ubg_IpyAJ4AEVQFCfxRd-11" value="int y = 20" style="rounded=0;whiteSpace=wrap;html=1;fontFamily=Ubuntu;fontSource=https%3A%2F%2Ffonts.googleapis.com%2Fcss%3Ffamily%3DUbuntu;fontSize=17;" vertex="1" parent="1">
          <mxGeometry x="120" y="340" width="190" height="30" as="geometry" />
        </mxCell>
        <mxCell id="ubg_IpyAJ4AEVQFCfxRd-26" style="edgeStyle=orthogonalEdgeStyle;rounded=0;orthogonalLoop=1;jettySize=auto;html=1;entryX=0;entryY=0.5;entryDx=0;entryDy=0;fillColor=#f8cecc;strokeColor=#b85450;" edge="1" parent="1" source="ubg_IpyAJ4AEVQFCfxRd-12" target="ubg_IpyAJ4AEVQFCfxRd-25">
          <mxGeometry relative="1" as="geometry" />
        </mxCell>
        <mxCell id="ubg_IpyAJ4AEVQFCfxRd-12" value="int[] nums1 = 0xA10" style="rounded=0;whiteSpace=wrap;html=1;fontFamily=Ubuntu;fontSource=https%3A%2F%2Ffonts.googleapis.com%2Fcss%3Ffamily%3DUbuntu;fontSize=17;" vertex="1" parent="1">
          <mxGeometry x="120" y="370" width="190" height="30" as="geometry" />
        </mxCell>
        <mxCell id="ubg_IpyAJ4AEVQFCfxRd-42" style="edgeStyle=orthogonalEdgeStyle;rounded=0;orthogonalLoop=1;jettySize=auto;html=1;exitX=1;exitY=0.5;exitDx=0;exitDy=0;entryX=0;entryY=0.5;entryDx=0;entryDy=0;" edge="1" parent="1" source="ubg_IpyAJ4AEVQFCfxRd-13" target="ubg_IpyAJ4AEVQFCfxRd-36">
          <mxGeometry relative="1" as="geometry">
            <Array as="points">
              <mxPoint x="470" y="415" />
              <mxPoint x="470" y="310" />
            </Array>
          </mxGeometry>
        </mxCell>
        <mxCell id="ubg_IpyAJ4AEVQFCfxRd-13" value="int[] nums2 = 0xA15" style="rounded=0;whiteSpace=wrap;html=1;fontFamily=Ubuntu;fontSource=https%3A%2F%2Ffonts.googleapis.com%2Fcss%3Ffamily%3DUbuntu;fontSize=17;" vertex="1" parent="1">
          <mxGeometry x="120" y="400" width="190" height="30" as="geometry" />
        </mxCell>
        <mxCell id="ubg_IpyAJ4AEVQFCfxRd-43" style="edgeStyle=orthogonalEdgeStyle;rounded=0;orthogonalLoop=1;jettySize=auto;html=1;entryX=0;entryY=0.5;entryDx=0;entryDy=0;fillColor=#f8cecc;strokeColor=#b85450;" edge="1" parent="1" source="ubg_IpyAJ4AEVQFCfxRd-14" target="ubg_IpyAJ4AEVQFCfxRd-25">
          <mxGeometry relative="1" as="geometry">
            <Array as="points">
              <mxPoint x="440" y="445" />
              <mxPoint x="440" y="115" />
            </Array>
          </mxGeometry>
        </mxCell>
        <mxCell id="ubg_IpyAJ4AEVQFCfxRd-14" value="int[] nums3 = 0xA10" style="rounded=0;whiteSpace=wrap;html=1;fontFamily=Ubuntu;fontSource=https%3A%2F%2Ffonts.googleapis.com%2Fcss%3Ffamily%3DUbuntu;fontSize=17;" vertex="1" parent="1">
          <mxGeometry x="120" y="430" width="190" height="30" as="geometry" />
        </mxCell>
        <mxCell id="ubg_IpyAJ4AEVQFCfxRd-15" value="..." style="rounded=0;whiteSpace=wrap;html=1;fontFamily=Ubuntu;fontSource=https%3A%2F%2Ffonts.googleapis.com%2Fcss%3Ffamily%3DUbuntu;fontSize=17;" vertex="1" parent="1">
          <mxGeometry x="120" y="460" width="190" height="30" as="geometry" />
        </mxCell>
        <mxCell id="ubg_IpyAJ4AEVQFCfxRd-16" value="10" style="rounded=0;whiteSpace=wrap;html=1;fontFamily=Ubuntu;fontSource=https%3A%2F%2Ffonts.googleapis.com%2Fcss%3Ffamily%3DUbuntu;fontSize=18;" vertex="1" parent="1">
          <mxGeometry x="530" y="150" width="40" height="40" as="geometry" />
        </mxCell>
        <mxCell id="ubg_IpyAJ4AEVQFCfxRd-17" value="20" style="rounded=0;whiteSpace=wrap;html=1;fontFamily=Ubuntu;fontSource=https%3A%2F%2Ffonts.googleapis.com%2Fcss%3Ffamily%3DUbuntu;fontSize=18;" vertex="1" parent="1">
          <mxGeometry x="570" y="150" width="40" height="40" as="geometry" />
        </mxCell>
        <mxCell id="ubg_IpyAJ4AEVQFCfxRd-18" value="0" style="rounded=0;whiteSpace=wrap;html=1;fontFamily=Ubuntu;fontSource=https%3A%2F%2Ffonts.googleapis.com%2Fcss%3Ffamily%3DUbuntu;fontSize=18;" vertex="1" parent="1">
          <mxGeometry x="610" y="150" width="40" height="40" as="geometry" />
        </mxCell>
        <mxCell id="ubg_IpyAJ4AEVQFCfxRd-19" value="0" style="text;html=1;strokeColor=#6c8ebf;fillColor=#dae8fc;align=center;verticalAlign=middle;whiteSpace=wrap;rounded=0;fontSize=16;" vertex="1" parent="1">
          <mxGeometry x="530" y="130" width="40" height="20" as="geometry" />
        </mxCell>
        <mxCell id="ubg_IpyAJ4AEVQFCfxRd-20" value="1" style="text;html=1;strokeColor=#6c8ebf;fillColor=#dae8fc;align=center;verticalAlign=middle;whiteSpace=wrap;rounded=0;fontSize=16;" vertex="1" parent="1">
          <mxGeometry x="570" y="130" width="40" height="20" as="geometry" />
        </mxCell>
        <mxCell id="ubg_IpyAJ4AEVQFCfxRd-21" value="2" style="text;html=1;strokeColor=#6c8ebf;fillColor=#dae8fc;align=center;verticalAlign=middle;whiteSpace=wrap;rounded=0;fontSize=16;" vertex="1" parent="1">
          <mxGeometry x="610" y="130" width="40" height="20" as="geometry" />
        </mxCell>
        <mxCell id="ubg_IpyAJ4AEVQFCfxRd-22" value="length = 3" style="rounded=0;whiteSpace=wrap;html=1;fontFamily=Ubuntu;fontSource=https%3A%2F%2Ffonts.googleapis.com%2Fcss%3Ffamily%3DUbuntu;fontSize=16;" vertex="1" parent="1">
          <mxGeometry x="530" y="190" width="120" height="30" as="geometry" />
        </mxCell>
        <mxCell id="ubg_IpyAJ4AEVQFCfxRd-23" value="toString()" style="rounded=0;whiteSpace=wrap;html=1;fontFamily=Ubuntu;fontSource=https%3A%2F%2Ffonts.googleapis.com%2Fcss%3Ffamily%3DUbuntu;fontSize=16;" vertex="1" parent="1">
          <mxGeometry x="530" y="220" width="120" height="30" as="geometry" />
        </mxCell>
        <mxCell id="ubg_IpyAJ4AEVQFCfxRd-24" value="..." style="rounded=0;whiteSpace=wrap;html=1;fontFamily=Ubuntu;fontSource=https%3A%2F%2Ffonts.googleapis.com%2Fcss%3Ffamily%3DUbuntu;fontSize=16;" vertex="1" parent="1">
          <mxGeometry x="530" y="250" width="120" height="30" as="geometry" />
        </mxCell>
        <mxCell id="ubg_IpyAJ4AEVQFCfxRd-25" value="0xA10" style="text;html=1;strokeColor=#82b366;fillColor=#d5e8d4;align=center;verticalAlign=middle;whiteSpace=wrap;rounded=0;fontFamily=Ubuntu;fontSource=https%3A%2F%2Ffonts.googleapis.com%2Fcss%3Ffamily%3DUbuntu;fontSize=16;" vertex="1" parent="1">
          <mxGeometry x="530" y="100" width="120" height="30" as="geometry" />
        </mxCell>
        <mxCell id="ubg_IpyAJ4AEVQFCfxRd-27" value="0" style="rounded=0;whiteSpace=wrap;html=1;fontFamily=Ubuntu;fontSource=https%3A%2F%2Ffonts.googleapis.com%2Fcss%3Ffamily%3DUbuntu;fontSize=18;" vertex="1" parent="1">
          <mxGeometry x="530" y="345" width="40" height="40" as="geometry" />
        </mxCell>
        <mxCell id="ubg_IpyAJ4AEVQFCfxRd-28" value="0" style="rounded=0;whiteSpace=wrap;html=1;fontFamily=Ubuntu;fontSource=https%3A%2F%2Ffonts.googleapis.com%2Fcss%3Ffamily%3DUbuntu;fontSize=18;" vertex="1" parent="1">
          <mxGeometry x="570" y="345" width="40" height="40" as="geometry" />
        </mxCell>
        <mxCell id="ubg_IpyAJ4AEVQFCfxRd-39" value="" style="edgeStyle=orthogonalEdgeStyle;rounded=0;orthogonalLoop=1;jettySize=auto;html=1;" edge="1" parent="1" source="ubg_IpyAJ4AEVQFCfxRd-29" target="ubg_IpyAJ4AEVQFCfxRd-36">
          <mxGeometry relative="1" as="geometry" />
        </mxCell>
        <mxCell id="ubg_IpyAJ4AEVQFCfxRd-29" value="0" style="rounded=0;whiteSpace=wrap;html=1;fontFamily=Ubuntu;fontSource=https%3A%2F%2Ffonts.googleapis.com%2Fcss%3Ffamily%3DUbuntu;fontSize=18;" vertex="1" parent="1">
          <mxGeometry x="610" y="345" width="40" height="40" as="geometry" />
        </mxCell>
        <mxCell id="ubg_IpyAJ4AEVQFCfxRd-30" value="0" style="text;html=1;strokeColor=#6c8ebf;fillColor=#dae8fc;align=center;verticalAlign=middle;whiteSpace=wrap;rounded=0;fontSize=16;" vertex="1" parent="1">
          <mxGeometry x="530" y="325" width="40" height="20" as="geometry" />
        </mxCell>
        <mxCell id="ubg_IpyAJ4AEVQFCfxRd-31" value="1" style="text;html=1;strokeColor=#6c8ebf;fillColor=#dae8fc;align=center;verticalAlign=middle;whiteSpace=wrap;rounded=0;fontSize=16;" vertex="1" parent="1">
          <mxGeometry x="570" y="325" width="40" height="20" as="geometry" />
        </mxCell>
        <mxCell id="ubg_IpyAJ4AEVQFCfxRd-32" value="2" style="text;html=1;strokeColor=#6c8ebf;fillColor=#dae8fc;align=center;verticalAlign=middle;whiteSpace=wrap;rounded=0;fontSize=16;" vertex="1" parent="1">
          <mxGeometry x="610" y="325" width="40" height="20" as="geometry" />
        </mxCell>
        <mxCell id="ubg_IpyAJ4AEVQFCfxRd-33" value="length = 5" style="rounded=0;whiteSpace=wrap;html=1;fontFamily=Ubuntu;fontSource=https%3A%2F%2Ffonts.googleapis.com%2Fcss%3Ffamily%3DUbuntu;fontSize=16;" vertex="1" parent="1">
          <mxGeometry x="530" y="385" width="200" height="30" as="geometry" />
        </mxCell>
        <mxCell id="ubg_IpyAJ4AEVQFCfxRd-34" value="toString()" style="rounded=0;whiteSpace=wrap;html=1;fontFamily=Ubuntu;fontSource=https%3A%2F%2Ffonts.googleapis.com%2Fcss%3Ffamily%3DUbuntu;fontSize=16;" vertex="1" parent="1">
          <mxGeometry x="530" y="415" width="200" height="30" as="geometry" />
        </mxCell>
        <mxCell id="ubg_IpyAJ4AEVQFCfxRd-35" value="..." style="rounded=0;whiteSpace=wrap;html=1;fontFamily=Ubuntu;fontSource=https%3A%2F%2Ffonts.googleapis.com%2Fcss%3Ffamily%3DUbuntu;fontSize=16;" vertex="1" parent="1">
          <mxGeometry x="530" y="445" width="200" height="30" as="geometry" />
        </mxCell>
        <mxCell id="ubg_IpyAJ4AEVQFCfxRd-36" value="0xA15" style="text;html=1;strokeColor=#82b366;fillColor=#d5e8d4;align=center;verticalAlign=middle;whiteSpace=wrap;rounded=0;fontFamily=Ubuntu;fontSource=https%3A%2F%2Ffonts.googleapis.com%2Fcss%3Ffamily%3DUbuntu;fontSize=16;" vertex="1" parent="1">
          <mxGeometry x="530" y="295" width="200" height="30" as="geometry" />
        </mxCell>
        <mxCell id="ubg_IpyAJ4AEVQFCfxRd-37" value="10" style="rounded=0;whiteSpace=wrap;html=1;fontFamily=Ubuntu;fontSource=https%3A%2F%2Ffonts.googleapis.com%2Fcss%3Ffamily%3DUbuntu;fontSize=18;" vertex="1" parent="1">
          <mxGeometry x="650" y="345" width="40" height="40" as="geometry" />
        </mxCell>
        <mxCell id="ubg_IpyAJ4AEVQFCfxRd-38" value="20" style="rounded=0;whiteSpace=wrap;html=1;fontFamily=Ubuntu;fontSource=https%3A%2F%2Ffonts.googleapis.com%2Fcss%3Ffamily%3DUbuntu;fontSize=18;" vertex="1" parent="1">
          <mxGeometry x="690" y="345" width="40" height="40" as="geometry" />
        </mxCell>
        <mxCell id="ubg_IpyAJ4AEVQFCfxRd-40" value="3" style="text;html=1;strokeColor=#6c8ebf;fillColor=#dae8fc;align=center;verticalAlign=middle;whiteSpace=wrap;rounded=0;fontSize=16;" vertex="1" parent="1">
          <mxGeometry x="650" y="325" width="40" height="20" as="geometry" />
        </mxCell>
        <mxCell id="ubg_IpyAJ4AEVQFCfxRd-41" value="4" style="text;html=1;strokeColor=#6c8ebf;fillColor=#dae8fc;align=center;verticalAlign=middle;whiteSpace=wrap;rounded=0;fontSize=16;" vertex="1" parent="1">
          <mxGeometry x="690" y="325" width="40" height="20" as="geometry" />
        </mxCell>
      </root>
    </mxGraphModel>
  </diagram>
  <diagram name="Page-2" id="fnyQXq20zs_jz3hH_hP-">
    <mxGraphModel dx="879" dy="1444" grid="1" gridSize="10" guides="1" tooltips="1" connect="1" arrows="1" fold="1" page="1" pageScale="1" pageWidth="1100" pageHeight="850" math="0" shadow="0">
      <root>
        <mxCell id="PlHgOaLPUvE8yZ5R3Yef-0" />
        <mxCell id="PlHgOaLPUvE8yZ5R3Yef-1" parent="PlHgOaLPUvE8yZ5R3Yef-0" />
        <mxCell id="PlHgOaLPUvE8yZ5R3Yef-2" value="" style="rounded=0;whiteSpace=wrap;html=1;" vertex="1" parent="PlHgOaLPUvE8yZ5R3Yef-1">
          <mxGeometry x="120" y="30" width="190" height="460" as="geometry" />
        </mxCell>
        <mxCell id="PlHgOaLPUvE8yZ5R3Yef-3" value="" style="rounded=0;whiteSpace=wrap;html=1;" vertex="1" parent="PlHgOaLPUvE8yZ5R3Yef-1">
          <mxGeometry x="310" y="30" width="550" height="460" as="geometry" />
        </mxCell>
        <mxCell id="PlHgOaLPUvE8yZ5R3Yef-4" value="" style="rounded=0;whiteSpace=wrap;html=1;fillColor=#d5e8d4;strokeColor=#82b366;strokeWidth=7;" vertex="1" parent="PlHgOaLPUvE8yZ5R3Yef-1">
          <mxGeometry x="120" y="310" width="190" height="180" as="geometry" />
        </mxCell>
        <mxCell id="PlHgOaLPUvE8yZ5R3Yef-5" value="main" style="text;html=1;strokeColor=#82b366;fillColor=#d5e8d4;align=center;verticalAlign=middle;whiteSpace=wrap;rounded=0;fontFamily=Ubuntu;fontSource=https%3A%2F%2Ffonts.googleapis.com%2Fcss%3Ffamily%3DUbuntu;fontSize=18;" vertex="1" parent="PlHgOaLPUvE8yZ5R3Yef-1">
          <mxGeometry x="40" y="370" width="60" height="30" as="geometry" />
        </mxCell>
        <mxCell id="PlHgOaLPUvE8yZ5R3Yef-6" value="main thread" style="shape=hexagon;perimeter=hexagonPerimeter2;whiteSpace=wrap;html=1;fixedSize=1;fontFamily=Ubuntu;fontSource=https%3A%2F%2Ffonts.googleapis.com%2Fcss%3Ffamily%3DUbuntu;fontSize=17;" vertex="1" parent="PlHgOaLPUvE8yZ5R3Yef-1">
          <mxGeometry x="155" y="-30" width="120" height="50" as="geometry" />
        </mxCell>
        <mxCell id="PlHgOaLPUvE8yZ5R3Yef-7" value="STACK" style="text;html=1;strokeColor=none;fillColor=none;align=center;verticalAlign=middle;whiteSpace=wrap;rounded=0;fontSize=17;fontStyle=1;fontFamily=Ubuntu;fontSource=https%3A%2F%2Ffonts.googleapis.com%2Fcss%3Ffamily%3DUbuntu;" vertex="1" parent="PlHgOaLPUvE8yZ5R3Yef-1">
          <mxGeometry x="190" y="500" width="60" height="30" as="geometry" />
        </mxCell>
        <mxCell id="PlHgOaLPUvE8yZ5R3Yef-8" value="HEAP" style="text;html=1;strokeColor=none;fillColor=none;align=center;verticalAlign=middle;whiteSpace=wrap;rounded=0;fontSize=17;fontStyle=1;fontFamily=Ubuntu;fontSource=https%3A%2F%2Ffonts.googleapis.com%2Fcss%3Ffamily%3DUbuntu;" vertex="1" parent="PlHgOaLPUvE8yZ5R3Yef-1">
          <mxGeometry x="550" y="500" width="60" height="30" as="geometry" />
        </mxCell>
        <mxCell id="PlHgOaLPUvE8yZ5R3Yef-9" value="int x = 10" style="rounded=0;whiteSpace=wrap;html=1;fontFamily=Ubuntu;fontSource=https%3A%2F%2Ffonts.googleapis.com%2Fcss%3Ffamily%3DUbuntu;fontSize=17;" vertex="1" parent="PlHgOaLPUvE8yZ5R3Yef-1">
          <mxGeometry x="120" y="310" width="190" height="30" as="geometry" />
        </mxCell>
        <mxCell id="PlHgOaLPUvE8yZ5R3Yef-10" value="int y = 20" style="rounded=0;whiteSpace=wrap;html=1;fontFamily=Ubuntu;fontSource=https%3A%2F%2Ffonts.googleapis.com%2Fcss%3Ffamily%3DUbuntu;fontSize=17;" vertex="1" parent="PlHgOaLPUvE8yZ5R3Yef-1">
          <mxGeometry x="120" y="340" width="190" height="30" as="geometry" />
        </mxCell>
        <mxCell id="4RoeQZFeNBu5MLywLr1R-0" style="edgeStyle=orthogonalEdgeStyle;rounded=0;orthogonalLoop=1;jettySize=auto;html=1;entryX=0;entryY=0.25;entryDx=0;entryDy=0;" edge="1" parent="PlHgOaLPUvE8yZ5R3Yef-1" source="PlHgOaLPUvE8yZ5R3Yef-12" target="PlHgOaLPUvE8yZ5R3Yef-38">
          <mxGeometry relative="1" as="geometry" />
        </mxCell>
        <mxCell id="PlHgOaLPUvE8yZ5R3Yef-12" value="int[] nums1 = 0xA15" style="rounded=0;whiteSpace=wrap;html=1;fontFamily=Ubuntu;fontSource=https%3A%2F%2Ffonts.googleapis.com%2Fcss%3Ffamily%3DUbuntu;fontSize=17;" vertex="1" parent="PlHgOaLPUvE8yZ5R3Yef-1">
          <mxGeometry x="120" y="370" width="190" height="30" as="geometry" />
        </mxCell>
        <mxCell id="PlHgOaLPUvE8yZ5R3Yef-13" style="edgeStyle=orthogonalEdgeStyle;rounded=0;orthogonalLoop=1;jettySize=auto;html=1;exitX=1;exitY=0.5;exitDx=0;exitDy=0;entryX=0;entryY=0.75;entryDx=0;entryDy=0;fillColor=#f8cecc;strokeColor=#b85450;" edge="1" parent="PlHgOaLPUvE8yZ5R3Yef-1" source="PlHgOaLPUvE8yZ5R3Yef-14" target="PlHgOaLPUvE8yZ5R3Yef-27">
          <mxGeometry relative="1" as="geometry">
            <Array as="points">
              <mxPoint x="470" y="415" />
              <mxPoint x="470" y="123" />
            </Array>
          </mxGeometry>
        </mxCell>
        <mxCell id="PlHgOaLPUvE8yZ5R3Yef-14" value="int[] nums2 = 0xA10" style="rounded=0;whiteSpace=wrap;html=1;fontFamily=Ubuntu;fontSource=https%3A%2F%2Ffonts.googleapis.com%2Fcss%3Ffamily%3DUbuntu;fontSize=17;" vertex="1" parent="PlHgOaLPUvE8yZ5R3Yef-1">
          <mxGeometry x="120" y="400" width="190" height="30" as="geometry" />
        </mxCell>
        <mxCell id="PlHgOaLPUvE8yZ5R3Yef-15" style="edgeStyle=orthogonalEdgeStyle;rounded=0;orthogonalLoop=1;jettySize=auto;html=1;entryX=0;entryY=0.5;entryDx=0;entryDy=0;fillColor=#f8cecc;strokeColor=#b85450;" edge="1" parent="PlHgOaLPUvE8yZ5R3Yef-1" source="PlHgOaLPUvE8yZ5R3Yef-16" target="PlHgOaLPUvE8yZ5R3Yef-27">
          <mxGeometry relative="1" as="geometry">
            <Array as="points">
              <mxPoint x="440" y="445" />
              <mxPoint x="440" y="115" />
            </Array>
          </mxGeometry>
        </mxCell>
        <mxCell id="PlHgOaLPUvE8yZ5R3Yef-16" value="int[] nums3 = 0xA10" style="rounded=0;whiteSpace=wrap;html=1;fontFamily=Ubuntu;fontSource=https%3A%2F%2Ffonts.googleapis.com%2Fcss%3Ffamily%3DUbuntu;fontSize=17;" vertex="1" parent="PlHgOaLPUvE8yZ5R3Yef-1">
          <mxGeometry x="120" y="430" width="190" height="30" as="geometry" />
        </mxCell>
        <mxCell id="PlHgOaLPUvE8yZ5R3Yef-17" value="..." style="rounded=0;whiteSpace=wrap;html=1;fontFamily=Ubuntu;fontSource=https%3A%2F%2Ffonts.googleapis.com%2Fcss%3Ffamily%3DUbuntu;fontSize=17;" vertex="1" parent="PlHgOaLPUvE8yZ5R3Yef-1">
          <mxGeometry x="120" y="460" width="190" height="30" as="geometry" />
        </mxCell>
        <mxCell id="PlHgOaLPUvE8yZ5R3Yef-18" value="10" style="rounded=0;whiteSpace=wrap;html=1;fontFamily=Ubuntu;fontSource=https%3A%2F%2Ffonts.googleapis.com%2Fcss%3Ffamily%3DUbuntu;fontSize=18;" vertex="1" parent="PlHgOaLPUvE8yZ5R3Yef-1">
          <mxGeometry x="530" y="150" width="40" height="40" as="geometry" />
        </mxCell>
        <mxCell id="PlHgOaLPUvE8yZ5R3Yef-19" value="20" style="rounded=0;whiteSpace=wrap;html=1;fontFamily=Ubuntu;fontSource=https%3A%2F%2Ffonts.googleapis.com%2Fcss%3Ffamily%3DUbuntu;fontSize=18;" vertex="1" parent="PlHgOaLPUvE8yZ5R3Yef-1">
          <mxGeometry x="570" y="150" width="40" height="40" as="geometry" />
        </mxCell>
        <mxCell id="PlHgOaLPUvE8yZ5R3Yef-20" value="0" style="rounded=0;whiteSpace=wrap;html=1;fontFamily=Ubuntu;fontSource=https%3A%2F%2Ffonts.googleapis.com%2Fcss%3Ffamily%3DUbuntu;fontSize=18;" vertex="1" parent="PlHgOaLPUvE8yZ5R3Yef-1">
          <mxGeometry x="610" y="150" width="40" height="40" as="geometry" />
        </mxCell>
        <mxCell id="PlHgOaLPUvE8yZ5R3Yef-21" value="0" style="text;html=1;strokeColor=#6c8ebf;fillColor=#dae8fc;align=center;verticalAlign=middle;whiteSpace=wrap;rounded=0;fontSize=16;" vertex="1" parent="PlHgOaLPUvE8yZ5R3Yef-1">
          <mxGeometry x="530" y="130" width="40" height="20" as="geometry" />
        </mxCell>
        <mxCell id="PlHgOaLPUvE8yZ5R3Yef-22" value="1" style="text;html=1;strokeColor=#6c8ebf;fillColor=#dae8fc;align=center;verticalAlign=middle;whiteSpace=wrap;rounded=0;fontSize=16;" vertex="1" parent="PlHgOaLPUvE8yZ5R3Yef-1">
          <mxGeometry x="570" y="130" width="40" height="20" as="geometry" />
        </mxCell>
        <mxCell id="PlHgOaLPUvE8yZ5R3Yef-23" value="2" style="text;html=1;strokeColor=#6c8ebf;fillColor=#dae8fc;align=center;verticalAlign=middle;whiteSpace=wrap;rounded=0;fontSize=16;" vertex="1" parent="PlHgOaLPUvE8yZ5R3Yef-1">
          <mxGeometry x="610" y="130" width="40" height="20" as="geometry" />
        </mxCell>
        <mxCell id="PlHgOaLPUvE8yZ5R3Yef-24" value="length = 3" style="rounded=0;whiteSpace=wrap;html=1;fontFamily=Ubuntu;fontSource=https%3A%2F%2Ffonts.googleapis.com%2Fcss%3Ffamily%3DUbuntu;fontSize=16;" vertex="1" parent="PlHgOaLPUvE8yZ5R3Yef-1">
          <mxGeometry x="530" y="190" width="120" height="30" as="geometry" />
        </mxCell>
        <mxCell id="PlHgOaLPUvE8yZ5R3Yef-25" value="toString()" style="rounded=0;whiteSpace=wrap;html=1;fontFamily=Ubuntu;fontSource=https%3A%2F%2Ffonts.googleapis.com%2Fcss%3Ffamily%3DUbuntu;fontSize=16;" vertex="1" parent="PlHgOaLPUvE8yZ5R3Yef-1">
          <mxGeometry x="530" y="220" width="120" height="30" as="geometry" />
        </mxCell>
        <mxCell id="PlHgOaLPUvE8yZ5R3Yef-26" value="..." style="rounded=0;whiteSpace=wrap;html=1;fontFamily=Ubuntu;fontSource=https%3A%2F%2Ffonts.googleapis.com%2Fcss%3Ffamily%3DUbuntu;fontSize=16;" vertex="1" parent="PlHgOaLPUvE8yZ5R3Yef-1">
          <mxGeometry x="530" y="250" width="120" height="30" as="geometry" />
        </mxCell>
        <mxCell id="PlHgOaLPUvE8yZ5R3Yef-27" value="0xA10" style="text;html=1;strokeColor=#82b366;fillColor=#d5e8d4;align=center;verticalAlign=middle;whiteSpace=wrap;rounded=0;fontFamily=Ubuntu;fontSource=https%3A%2F%2Ffonts.googleapis.com%2Fcss%3Ffamily%3DUbuntu;fontSize=16;" vertex="1" parent="PlHgOaLPUvE8yZ5R3Yef-1">
          <mxGeometry x="530" y="100" width="120" height="30" as="geometry" />
        </mxCell>
        <mxCell id="PlHgOaLPUvE8yZ5R3Yef-28" value="0" style="rounded=0;whiteSpace=wrap;html=1;fontFamily=Ubuntu;fontSource=https%3A%2F%2Ffonts.googleapis.com%2Fcss%3Ffamily%3DUbuntu;fontSize=18;" vertex="1" parent="PlHgOaLPUvE8yZ5R3Yef-1">
          <mxGeometry x="530" y="345" width="40" height="40" as="geometry" />
        </mxCell>
        <mxCell id="PlHgOaLPUvE8yZ5R3Yef-29" value="0" style="rounded=0;whiteSpace=wrap;html=1;fontFamily=Ubuntu;fontSource=https%3A%2F%2Ffonts.googleapis.com%2Fcss%3Ffamily%3DUbuntu;fontSize=18;" vertex="1" parent="PlHgOaLPUvE8yZ5R3Yef-1">
          <mxGeometry x="570" y="345" width="40" height="40" as="geometry" />
        </mxCell>
        <mxCell id="PlHgOaLPUvE8yZ5R3Yef-30" value="" style="edgeStyle=orthogonalEdgeStyle;rounded=0;orthogonalLoop=1;jettySize=auto;html=1;" edge="1" parent="PlHgOaLPUvE8yZ5R3Yef-1" source="PlHgOaLPUvE8yZ5R3Yef-31" target="PlHgOaLPUvE8yZ5R3Yef-38">
          <mxGeometry relative="1" as="geometry" />
        </mxCell>
        <mxCell id="PlHgOaLPUvE8yZ5R3Yef-31" value="0" style="rounded=0;whiteSpace=wrap;html=1;fontFamily=Ubuntu;fontSource=https%3A%2F%2Ffonts.googleapis.com%2Fcss%3Ffamily%3DUbuntu;fontSize=18;" vertex="1" parent="PlHgOaLPUvE8yZ5R3Yef-1">
          <mxGeometry x="610" y="345" width="40" height="40" as="geometry" />
        </mxCell>
        <mxCell id="PlHgOaLPUvE8yZ5R3Yef-32" value="0" style="text;html=1;strokeColor=#6c8ebf;fillColor=#dae8fc;align=center;verticalAlign=middle;whiteSpace=wrap;rounded=0;fontSize=16;" vertex="1" parent="PlHgOaLPUvE8yZ5R3Yef-1">
          <mxGeometry x="530" y="325" width="40" height="20" as="geometry" />
        </mxCell>
        <mxCell id="PlHgOaLPUvE8yZ5R3Yef-33" value="1" style="text;html=1;strokeColor=#6c8ebf;fillColor=#dae8fc;align=center;verticalAlign=middle;whiteSpace=wrap;rounded=0;fontSize=16;" vertex="1" parent="PlHgOaLPUvE8yZ5R3Yef-1">
          <mxGeometry x="570" y="325" width="40" height="20" as="geometry" />
        </mxCell>
        <mxCell id="PlHgOaLPUvE8yZ5R3Yef-34" value="2" style="text;html=1;strokeColor=#6c8ebf;fillColor=#dae8fc;align=center;verticalAlign=middle;whiteSpace=wrap;rounded=0;fontSize=16;" vertex="1" parent="PlHgOaLPUvE8yZ5R3Yef-1">
          <mxGeometry x="610" y="325" width="40" height="20" as="geometry" />
        </mxCell>
        <mxCell id="PlHgOaLPUvE8yZ5R3Yef-35" value="length = 5" style="rounded=0;whiteSpace=wrap;html=1;fontFamily=Ubuntu;fontSource=https%3A%2F%2Ffonts.googleapis.com%2Fcss%3Ffamily%3DUbuntu;fontSize=16;" vertex="1" parent="PlHgOaLPUvE8yZ5R3Yef-1">
          <mxGeometry x="530" y="385" width="200" height="30" as="geometry" />
        </mxCell>
        <mxCell id="PlHgOaLPUvE8yZ5R3Yef-36" value="toString()" style="rounded=0;whiteSpace=wrap;html=1;fontFamily=Ubuntu;fontSource=https%3A%2F%2Ffonts.googleapis.com%2Fcss%3Ffamily%3DUbuntu;fontSize=16;" vertex="1" parent="PlHgOaLPUvE8yZ5R3Yef-1">
          <mxGeometry x="530" y="415" width="200" height="30" as="geometry" />
        </mxCell>
        <mxCell id="PlHgOaLPUvE8yZ5R3Yef-37" value="..." style="rounded=0;whiteSpace=wrap;html=1;fontFamily=Ubuntu;fontSource=https%3A%2F%2Ffonts.googleapis.com%2Fcss%3Ffamily%3DUbuntu;fontSize=16;" vertex="1" parent="PlHgOaLPUvE8yZ5R3Yef-1">
          <mxGeometry x="530" y="445" width="200" height="30" as="geometry" />
        </mxCell>
        <mxCell id="PlHgOaLPUvE8yZ5R3Yef-38" value="0xA15" style="text;html=1;strokeColor=#82b366;fillColor=#d5e8d4;align=center;verticalAlign=middle;whiteSpace=wrap;rounded=0;fontFamily=Ubuntu;fontSource=https%3A%2F%2Ffonts.googleapis.com%2Fcss%3Ffamily%3DUbuntu;fontSize=16;" vertex="1" parent="PlHgOaLPUvE8yZ5R3Yef-1">
          <mxGeometry x="530" y="295" width="200" height="30" as="geometry" />
        </mxCell>
        <mxCell id="PlHgOaLPUvE8yZ5R3Yef-39" value="10" style="rounded=0;whiteSpace=wrap;html=1;fontFamily=Ubuntu;fontSource=https%3A%2F%2Ffonts.googleapis.com%2Fcss%3Ffamily%3DUbuntu;fontSize=18;" vertex="1" parent="PlHgOaLPUvE8yZ5R3Yef-1">
          <mxGeometry x="650" y="345" width="40" height="40" as="geometry" />
        </mxCell>
        <mxCell id="PlHgOaLPUvE8yZ5R3Yef-40" value="20" style="rounded=0;whiteSpace=wrap;html=1;fontFamily=Ubuntu;fontSource=https%3A%2F%2Ffonts.googleapis.com%2Fcss%3Ffamily%3DUbuntu;fontSize=18;" vertex="1" parent="PlHgOaLPUvE8yZ5R3Yef-1">
          <mxGeometry x="690" y="345" width="40" height="40" as="geometry" />
        </mxCell>
        <mxCell id="PlHgOaLPUvE8yZ5R3Yef-41" value="3" style="text;html=1;strokeColor=#6c8ebf;fillColor=#dae8fc;align=center;verticalAlign=middle;whiteSpace=wrap;rounded=0;fontSize=16;" vertex="1" parent="PlHgOaLPUvE8yZ5R3Yef-1">
          <mxGeometry x="650" y="325" width="40" height="20" as="geometry" />
        </mxCell>
        <mxCell id="PlHgOaLPUvE8yZ5R3Yef-42" value="4" style="text;html=1;strokeColor=#6c8ebf;fillColor=#dae8fc;align=center;verticalAlign=middle;whiteSpace=wrap;rounded=0;fontSize=16;" vertex="1" parent="PlHgOaLPUvE8yZ5R3Yef-1">
          <mxGeometry x="690" y="325" width="40" height="20" as="geometry" />
        </mxCell>
      </root>
    </mxGraphModel>
  </diagram>
  <diagram name="Page-3" id="_iscfUs0VHmm8S7_uNCy">
    <mxGraphModel dx="879" dy="1444" grid="1" gridSize="10" guides="1" tooltips="1" connect="1" arrows="1" fold="1" page="1" pageScale="1" pageWidth="1100" pageHeight="850" math="0" shadow="0">
      <root>
        <mxCell id="Cpp0dOxVOmfi8DiGDymE-0" />
        <mxCell id="Cpp0dOxVOmfi8DiGDymE-1" parent="Cpp0dOxVOmfi8DiGDymE-0" />
        <mxCell id="Cpp0dOxVOmfi8DiGDymE-2" value="" style="rounded=0;whiteSpace=wrap;html=1;" vertex="1" parent="Cpp0dOxVOmfi8DiGDymE-1">
          <mxGeometry x="120" y="30" width="190" height="460" as="geometry" />
        </mxCell>
        <mxCell id="Cpp0dOxVOmfi8DiGDymE-3" value="" style="rounded=0;whiteSpace=wrap;html=1;" vertex="1" parent="Cpp0dOxVOmfi8DiGDymE-1">
          <mxGeometry x="310" y="30" width="550" height="460" as="geometry" />
        </mxCell>
        <mxCell id="Cpp0dOxVOmfi8DiGDymE-4" value="" style="rounded=0;whiteSpace=wrap;html=1;fillColor=#d5e8d4;strokeColor=#82b366;strokeWidth=7;" vertex="1" parent="Cpp0dOxVOmfi8DiGDymE-1">
          <mxGeometry x="120" y="310" width="190" height="180" as="geometry" />
        </mxCell>
        <mxCell id="Cpp0dOxVOmfi8DiGDymE-5" value="main" style="text;html=1;strokeColor=#82b366;fillColor=#d5e8d4;align=center;verticalAlign=middle;whiteSpace=wrap;rounded=0;fontFamily=Ubuntu;fontSource=https%3A%2F%2Ffonts.googleapis.com%2Fcss%3Ffamily%3DUbuntu;fontSize=18;" vertex="1" parent="Cpp0dOxVOmfi8DiGDymE-1">
          <mxGeometry x="40" y="370" width="60" height="30" as="geometry" />
        </mxCell>
        <mxCell id="Cpp0dOxVOmfi8DiGDymE-6" value="main thread" style="shape=hexagon;perimeter=hexagonPerimeter2;whiteSpace=wrap;html=1;fixedSize=1;fontFamily=Ubuntu;fontSource=https%3A%2F%2Ffonts.googleapis.com%2Fcss%3Ffamily%3DUbuntu;fontSize=17;" vertex="1" parent="Cpp0dOxVOmfi8DiGDymE-1">
          <mxGeometry x="155" y="-30" width="120" height="50" as="geometry" />
        </mxCell>
        <mxCell id="Cpp0dOxVOmfi8DiGDymE-7" value="STACK" style="text;html=1;strokeColor=none;fillColor=none;align=center;verticalAlign=middle;whiteSpace=wrap;rounded=0;fontSize=17;fontStyle=1;fontFamily=Ubuntu;fontSource=https%3A%2F%2Ffonts.googleapis.com%2Fcss%3Ffamily%3DUbuntu;" vertex="1" parent="Cpp0dOxVOmfi8DiGDymE-1">
          <mxGeometry x="190" y="500" width="60" height="30" as="geometry" />
        </mxCell>
        <mxCell id="Cpp0dOxVOmfi8DiGDymE-8" value="HEAP" style="text;html=1;strokeColor=none;fillColor=none;align=center;verticalAlign=middle;whiteSpace=wrap;rounded=0;fontSize=17;fontStyle=1;fontFamily=Ubuntu;fontSource=https%3A%2F%2Ffonts.googleapis.com%2Fcss%3Ffamily%3DUbuntu;" vertex="1" parent="Cpp0dOxVOmfi8DiGDymE-1">
          <mxGeometry x="550" y="500" width="60" height="30" as="geometry" />
        </mxCell>
        <mxCell id="Cpp0dOxVOmfi8DiGDymE-9" value="int x = 10" style="rounded=0;whiteSpace=wrap;html=1;fontFamily=Ubuntu;fontSource=https%3A%2F%2Ffonts.googleapis.com%2Fcss%3Ffamily%3DUbuntu;fontSize=17;" vertex="1" parent="Cpp0dOxVOmfi8DiGDymE-1">
          <mxGeometry x="120" y="310" width="190" height="30" as="geometry" />
        </mxCell>
        <mxCell id="Cpp0dOxVOmfi8DiGDymE-10" value="int y = 20" style="rounded=0;whiteSpace=wrap;html=1;fontFamily=Ubuntu;fontSource=https%3A%2F%2Ffonts.googleapis.com%2Fcss%3Ffamily%3DUbuntu;fontSize=17;" vertex="1" parent="Cpp0dOxVOmfi8DiGDymE-1">
          <mxGeometry x="120" y="340" width="190" height="30" as="geometry" />
        </mxCell>
        <mxCell id="Cpp0dOxVOmfi8DiGDymE-11" style="edgeStyle=orthogonalEdgeStyle;rounded=0;orthogonalLoop=1;jettySize=auto;html=1;entryX=0;entryY=0.25;entryDx=0;entryDy=0;" edge="1" parent="Cpp0dOxVOmfi8DiGDymE-1" source="Cpp0dOxVOmfi8DiGDymE-12" target="Cpp0dOxVOmfi8DiGDymE-38">
          <mxGeometry relative="1" as="geometry" />
        </mxCell>
        <mxCell id="Cpp0dOxVOmfi8DiGDymE-12" value="int[] nums1 = 0xA15" style="rounded=0;whiteSpace=wrap;html=1;fontFamily=Ubuntu;fontSource=https%3A%2F%2Ffonts.googleapis.com%2Fcss%3Ffamily%3DUbuntu;fontSize=17;" vertex="1" parent="Cpp0dOxVOmfi8DiGDymE-1">
          <mxGeometry x="120" y="370" width="190" height="30" as="geometry" />
        </mxCell>
        <mxCell id="Cpp0dOxVOmfi8DiGDymE-13" style="edgeStyle=orthogonalEdgeStyle;rounded=0;orthogonalLoop=1;jettySize=auto;html=1;exitX=1;exitY=0.5;exitDx=0;exitDy=0;entryX=0;entryY=0.75;entryDx=0;entryDy=0;fillColor=#f8cecc;strokeColor=#b85450;" edge="1" parent="Cpp0dOxVOmfi8DiGDymE-1" source="Cpp0dOxVOmfi8DiGDymE-14" target="Cpp0dOxVOmfi8DiGDymE-27">
          <mxGeometry relative="1" as="geometry">
            <Array as="points">
              <mxPoint x="470" y="415" />
              <mxPoint x="470" y="123" />
            </Array>
          </mxGeometry>
        </mxCell>
        <mxCell id="Cpp0dOxVOmfi8DiGDymE-14" value="int[] nums2 = 0xA10" style="rounded=0;whiteSpace=wrap;html=1;fontFamily=Ubuntu;fontSource=https%3A%2F%2Ffonts.googleapis.com%2Fcss%3Ffamily%3DUbuntu;fontSize=17;" vertex="1" parent="Cpp0dOxVOmfi8DiGDymE-1">
          <mxGeometry x="120" y="400" width="190" height="30" as="geometry" />
        </mxCell>
        <mxCell id="Cpp0dOxVOmfi8DiGDymE-16" value="int[] nums3 = null" style="rounded=0;whiteSpace=wrap;html=1;fontFamily=Ubuntu;fontSource=https%3A%2F%2Ffonts.googleapis.com%2Fcss%3Ffamily%3DUbuntu;fontSize=17;" vertex="1" parent="Cpp0dOxVOmfi8DiGDymE-1">
          <mxGeometry x="120" y="430" width="190" height="30" as="geometry" />
        </mxCell>
        <mxCell id="Cpp0dOxVOmfi8DiGDymE-17" value="..." style="rounded=0;whiteSpace=wrap;html=1;fontFamily=Ubuntu;fontSource=https%3A%2F%2Ffonts.googleapis.com%2Fcss%3Ffamily%3DUbuntu;fontSize=17;" vertex="1" parent="Cpp0dOxVOmfi8DiGDymE-1">
          <mxGeometry x="120" y="460" width="190" height="30" as="geometry" />
        </mxCell>
        <mxCell id="Cpp0dOxVOmfi8DiGDymE-18" value="10" style="rounded=0;whiteSpace=wrap;html=1;fontFamily=Ubuntu;fontSource=https%3A%2F%2Ffonts.googleapis.com%2Fcss%3Ffamily%3DUbuntu;fontSize=18;" vertex="1" parent="Cpp0dOxVOmfi8DiGDymE-1">
          <mxGeometry x="530" y="150" width="40" height="40" as="geometry" />
        </mxCell>
        <mxCell id="Cpp0dOxVOmfi8DiGDymE-19" value="20" style="rounded=0;whiteSpace=wrap;html=1;fontFamily=Ubuntu;fontSource=https%3A%2F%2Ffonts.googleapis.com%2Fcss%3Ffamily%3DUbuntu;fontSize=18;" vertex="1" parent="Cpp0dOxVOmfi8DiGDymE-1">
          <mxGeometry x="570" y="150" width="40" height="40" as="geometry" />
        </mxCell>
        <mxCell id="Cpp0dOxVOmfi8DiGDymE-20" value="0" style="rounded=0;whiteSpace=wrap;html=1;fontFamily=Ubuntu;fontSource=https%3A%2F%2Ffonts.googleapis.com%2Fcss%3Ffamily%3DUbuntu;fontSize=18;" vertex="1" parent="Cpp0dOxVOmfi8DiGDymE-1">
          <mxGeometry x="610" y="150" width="40" height="40" as="geometry" />
        </mxCell>
        <mxCell id="Cpp0dOxVOmfi8DiGDymE-21" value="0" style="text;html=1;strokeColor=#6c8ebf;fillColor=#dae8fc;align=center;verticalAlign=middle;whiteSpace=wrap;rounded=0;fontSize=16;" vertex="1" parent="Cpp0dOxVOmfi8DiGDymE-1">
          <mxGeometry x="530" y="130" width="40" height="20" as="geometry" />
        </mxCell>
        <mxCell id="Cpp0dOxVOmfi8DiGDymE-22" value="1" style="text;html=1;strokeColor=#6c8ebf;fillColor=#dae8fc;align=center;verticalAlign=middle;whiteSpace=wrap;rounded=0;fontSize=16;" vertex="1" parent="Cpp0dOxVOmfi8DiGDymE-1">
          <mxGeometry x="570" y="130" width="40" height="20" as="geometry" />
        </mxCell>
        <mxCell id="Cpp0dOxVOmfi8DiGDymE-23" value="2" style="text;html=1;strokeColor=#6c8ebf;fillColor=#dae8fc;align=center;verticalAlign=middle;whiteSpace=wrap;rounded=0;fontSize=16;" vertex="1" parent="Cpp0dOxVOmfi8DiGDymE-1">
          <mxGeometry x="610" y="130" width="40" height="20" as="geometry" />
        </mxCell>
        <mxCell id="Cpp0dOxVOmfi8DiGDymE-24" value="length = 3" style="rounded=0;whiteSpace=wrap;html=1;fontFamily=Ubuntu;fontSource=https%3A%2F%2Ffonts.googleapis.com%2Fcss%3Ffamily%3DUbuntu;fontSize=16;" vertex="1" parent="Cpp0dOxVOmfi8DiGDymE-1">
          <mxGeometry x="530" y="190" width="120" height="30" as="geometry" />
        </mxCell>
        <mxCell id="Cpp0dOxVOmfi8DiGDymE-25" value="toString()" style="rounded=0;whiteSpace=wrap;html=1;fontFamily=Ubuntu;fontSource=https%3A%2F%2Ffonts.googleapis.com%2Fcss%3Ffamily%3DUbuntu;fontSize=16;" vertex="1" parent="Cpp0dOxVOmfi8DiGDymE-1">
          <mxGeometry x="530" y="220" width="120" height="30" as="geometry" />
        </mxCell>
        <mxCell id="Cpp0dOxVOmfi8DiGDymE-26" value="..." style="rounded=0;whiteSpace=wrap;html=1;fontFamily=Ubuntu;fontSource=https%3A%2F%2Ffonts.googleapis.com%2Fcss%3Ffamily%3DUbuntu;fontSize=16;" vertex="1" parent="Cpp0dOxVOmfi8DiGDymE-1">
          <mxGeometry x="530" y="250" width="120" height="30" as="geometry" />
        </mxCell>
        <mxCell id="Cpp0dOxVOmfi8DiGDymE-27" value="0xA10" style="text;html=1;strokeColor=#82b366;fillColor=#d5e8d4;align=center;verticalAlign=middle;whiteSpace=wrap;rounded=0;fontFamily=Ubuntu;fontSource=https%3A%2F%2Ffonts.googleapis.com%2Fcss%3Ffamily%3DUbuntu;fontSize=16;" vertex="1" parent="Cpp0dOxVOmfi8DiGDymE-1">
          <mxGeometry x="530" y="100" width="120" height="30" as="geometry" />
        </mxCell>
        <mxCell id="Cpp0dOxVOmfi8DiGDymE-28" value="0" style="rounded=0;whiteSpace=wrap;html=1;fontFamily=Ubuntu;fontSource=https%3A%2F%2Ffonts.googleapis.com%2Fcss%3Ffamily%3DUbuntu;fontSize=18;" vertex="1" parent="Cpp0dOxVOmfi8DiGDymE-1">
          <mxGeometry x="530" y="345" width="40" height="40" as="geometry" />
        </mxCell>
        <mxCell id="Cpp0dOxVOmfi8DiGDymE-29" value="0" style="rounded=0;whiteSpace=wrap;html=1;fontFamily=Ubuntu;fontSource=https%3A%2F%2Ffonts.googleapis.com%2Fcss%3Ffamily%3DUbuntu;fontSize=18;" vertex="1" parent="Cpp0dOxVOmfi8DiGDymE-1">
          <mxGeometry x="570" y="345" width="40" height="40" as="geometry" />
        </mxCell>
        <mxCell id="Cpp0dOxVOmfi8DiGDymE-30" value="" style="edgeStyle=orthogonalEdgeStyle;rounded=0;orthogonalLoop=1;jettySize=auto;html=1;" edge="1" parent="Cpp0dOxVOmfi8DiGDymE-1" source="Cpp0dOxVOmfi8DiGDymE-31" target="Cpp0dOxVOmfi8DiGDymE-38">
          <mxGeometry relative="1" as="geometry" />
        </mxCell>
        <mxCell id="Cpp0dOxVOmfi8DiGDymE-31" value="0" style="rounded=0;whiteSpace=wrap;html=1;fontFamily=Ubuntu;fontSource=https%3A%2F%2Ffonts.googleapis.com%2Fcss%3Ffamily%3DUbuntu;fontSize=18;" vertex="1" parent="Cpp0dOxVOmfi8DiGDymE-1">
          <mxGeometry x="610" y="345" width="40" height="40" as="geometry" />
        </mxCell>
        <mxCell id="Cpp0dOxVOmfi8DiGDymE-32" value="0" style="text;html=1;strokeColor=#6c8ebf;fillColor=#dae8fc;align=center;verticalAlign=middle;whiteSpace=wrap;rounded=0;fontSize=16;" vertex="1" parent="Cpp0dOxVOmfi8DiGDymE-1">
          <mxGeometry x="530" y="325" width="40" height="20" as="geometry" />
        </mxCell>
        <mxCell id="Cpp0dOxVOmfi8DiGDymE-33" value="1" style="text;html=1;strokeColor=#6c8ebf;fillColor=#dae8fc;align=center;verticalAlign=middle;whiteSpace=wrap;rounded=0;fontSize=16;" vertex="1" parent="Cpp0dOxVOmfi8DiGDymE-1">
          <mxGeometry x="570" y="325" width="40" height="20" as="geometry" />
        </mxCell>
        <mxCell id="Cpp0dOxVOmfi8DiGDymE-34" value="2" style="text;html=1;strokeColor=#6c8ebf;fillColor=#dae8fc;align=center;verticalAlign=middle;whiteSpace=wrap;rounded=0;fontSize=16;" vertex="1" parent="Cpp0dOxVOmfi8DiGDymE-1">
          <mxGeometry x="610" y="325" width="40" height="20" as="geometry" />
        </mxCell>
        <mxCell id="Cpp0dOxVOmfi8DiGDymE-35" value="length = 5" style="rounded=0;whiteSpace=wrap;html=1;fontFamily=Ubuntu;fontSource=https%3A%2F%2Ffonts.googleapis.com%2Fcss%3Ffamily%3DUbuntu;fontSize=16;" vertex="1" parent="Cpp0dOxVOmfi8DiGDymE-1">
          <mxGeometry x="530" y="385" width="200" height="30" as="geometry" />
        </mxCell>
        <mxCell id="Cpp0dOxVOmfi8DiGDymE-36" value="toString()" style="rounded=0;whiteSpace=wrap;html=1;fontFamily=Ubuntu;fontSource=https%3A%2F%2Ffonts.googleapis.com%2Fcss%3Ffamily%3DUbuntu;fontSize=16;" vertex="1" parent="Cpp0dOxVOmfi8DiGDymE-1">
          <mxGeometry x="530" y="415" width="200" height="30" as="geometry" />
        </mxCell>
        <mxCell id="Cpp0dOxVOmfi8DiGDymE-37" value="..." style="rounded=0;whiteSpace=wrap;html=1;fontFamily=Ubuntu;fontSource=https%3A%2F%2Ffonts.googleapis.com%2Fcss%3Ffamily%3DUbuntu;fontSize=16;" vertex="1" parent="Cpp0dOxVOmfi8DiGDymE-1">
          <mxGeometry x="530" y="445" width="200" height="30" as="geometry" />
        </mxCell>
        <mxCell id="Cpp0dOxVOmfi8DiGDymE-38" value="0xA15" style="text;html=1;strokeColor=#82b366;fillColor=#d5e8d4;align=center;verticalAlign=middle;whiteSpace=wrap;rounded=0;fontFamily=Ubuntu;fontSource=https%3A%2F%2Ffonts.googleapis.com%2Fcss%3Ffamily%3DUbuntu;fontSize=16;" vertex="1" parent="Cpp0dOxVOmfi8DiGDymE-1">
          <mxGeometry x="530" y="295" width="200" height="30" as="geometry" />
        </mxCell>
        <mxCell id="Cpp0dOxVOmfi8DiGDymE-39" value="10" style="rounded=0;whiteSpace=wrap;html=1;fontFamily=Ubuntu;fontSource=https%3A%2F%2Ffonts.googleapis.com%2Fcss%3Ffamily%3DUbuntu;fontSize=18;" vertex="1" parent="Cpp0dOxVOmfi8DiGDymE-1">
          <mxGeometry x="650" y="345" width="40" height="40" as="geometry" />
        </mxCell>
        <mxCell id="Cpp0dOxVOmfi8DiGDymE-40" value="20" style="rounded=0;whiteSpace=wrap;html=1;fontFamily=Ubuntu;fontSource=https%3A%2F%2Ffonts.googleapis.com%2Fcss%3Ffamily%3DUbuntu;fontSize=18;" vertex="1" parent="Cpp0dOxVOmfi8DiGDymE-1">
          <mxGeometry x="690" y="345" width="40" height="40" as="geometry" />
        </mxCell>
        <mxCell id="Cpp0dOxVOmfi8DiGDymE-41" value="3" style="text;html=1;strokeColor=#6c8ebf;fillColor=#dae8fc;align=center;verticalAlign=middle;whiteSpace=wrap;rounded=0;fontSize=16;" vertex="1" parent="Cpp0dOxVOmfi8DiGDymE-1">
          <mxGeometry x="650" y="325" width="40" height="20" as="geometry" />
        </mxCell>
        <mxCell id="Cpp0dOxVOmfi8DiGDymE-42" value="4" style="text;html=1;strokeColor=#6c8ebf;fillColor=#dae8fc;align=center;verticalAlign=middle;whiteSpace=wrap;rounded=0;fontSize=16;" vertex="1" parent="Cpp0dOxVOmfi8DiGDymE-1">
          <mxGeometry x="690" y="325" width="40" height="20" as="geometry" />
        </mxCell>
      </root>
    </mxGraphModel>
  </diagram>
</mxfile>
